# Blender v2.76 (sub 0) OBJ File: ''
# www.blender.org
mtllib scene3.mtl
o Cube_Cube.001
v 0.568280 0.402725 0.385715
v 0.568280 0.001234 0.385715
v 0.568280 0.402725 0.539755
v 0.568280 0.001234 0.539755
v 0.414239 0.402725 0.385715
v 0.414239 0.001234 0.385715
v 0.414239 0.402725 0.539755
v 0.414239 0.001234 0.539755
vn -1.000000 0.000000 0.000000
vn 0.000000 0.000000 -1.000000
vn 1.000000 0.000000 0.000000
vn 0.000000 0.000000 1.000000
vn 0.000000 -1.000000 0.000000
vn 0.000000 1.000000 0.000000
usemtl Material.002
s off
f 2//1 4//1 3//1 1//1
f 4//2 8//2 7//2 3//2
f 8//3 6//3 5//3 7//3
f 6//4 2//4 1//4 5//4
f 1//5 3//5 7//5 5//5
f 6//6 8//6 4//6 2//6
o scene
v 0.958679 2.015564 0.990929
v 0.958679 2.015564 -1.009071
v -1.041321 2.015564 -1.009071
v -1.041321 2.015564 0.990929
v 0.958679 0.015564 -1.009071
v -1.041321 0.015564 -1.009071
v 0.958679 0.015564 0.990929
v -1.041321 0.015564 0.990929
vn 1.000000 -0.000000 0.000000
vn 0.000000 1.000000 0.000000
vn 0.000000 0.000000 -1.000000
usemtl Material.003
s 1
f 16//7 14//7 11//7
f 12//7 16//7 11//7
usemtl Material.001
f 15//7 13//7 10//7
f 9//7 15//7 10//7
usemtl None
f 9//8 10//8 11//8
f 12//8 9//8 11//8
f 13//9 14//9 11//9
f 10//9 13//9 11//9
f 15//8 13//8 14//8
f 16//8 15//8 14//8
