# Blender v2.76 (sub 0) OBJ File: ''
# www.blender.org
mtllib scene2.mtl
o Cube_Cube.001
v -0.747405 0.402725 0.385715
v -0.747405 0.001234 0.385715
v -0.747405 0.402725 0.539755
v -0.747405 0.001234 0.539755
v -0.901446 0.402725 0.385715
v -0.901446 0.001234 0.385715
v -0.901446 0.402725 0.539755
v -0.901446 0.001234 0.539755
vn -1.000000 0.000000 0.000000
vn 0.000000 0.000000 -1.000000
vn 1.000000 0.000000 0.000000
vn 0.000000 0.000000 1.000000
vn 0.000000 -1.000000 0.000000
vn 0.000000 1.000000 0.000000
usemtl Material.002
s off
f 2//1 4//1 3//1 1//1
f 4//2 8//2 7//2 3//2
f 8//3 6//3 5//3 7//3
f 6//4 2//4 1//4 5//4
f 1//5 3//5 7//5 5//5
f 6//6 8//6 4//6 2//6
o Cube_Cube.001
v -0.742394 0.774120 0.207734
v -0.742394 0.774120 -0.207734
v -0.742394 0.012255 -0.207734
v -0.742394 0.012255 0.207734
v -0.326926 0.774120 -0.207734
v -0.326926 0.012255 -0.207734
v -0.326926 0.774120 0.207734
v -0.326926 0.012255 0.207734
vn -1.000000 0.000000 0.000000
vn 0.000000 0.000000 -1.000000
vn 1.000000 0.000000 0.000000
vn 0.000000 -0.000000 1.000000
vn 0.000000 -1.000000 -0.000000
vn 0.000000 1.000000 0.000000
usemtl Material.005
s 1
f 9//7 10//7 11//7 12//7
f 10//8 13//8 14//8 11//8
f 13//9 15//9 16//9 14//9
f 15//10 9//10 12//10 16//10
f 12//11 11//11 14//11 16//11
f 15//12 13//12 10//12 9//12
o scene
v 0.958679 2.015564 0.990929
v 0.958679 2.015564 -1.009071
v -1.041321 2.015564 -1.009071
v -1.041321 2.015564 0.990929
v 0.958679 0.015564 -1.009071
v -1.041321 0.015564 -1.009071
v 0.958679 0.015564 0.990929
v -1.041321 0.015564 0.990929
vn 1.000000 -0.000000 0.000000
vn 0.000000 1.000000 0.000000
vn 0.000000 0.000000 -1.000000
usemtl Material.003
s 1
f 24//13 22//13 19//13
f 20//13 24//13 19//13
usemtl Material.001
f 23//13 21//13 18//13
f 17//13 23//13 18//13
usemtl None
f 17//14 18//14 19//14
f 20//14 17//14 19//14
f 21//15 22//15 19//15
f 18//15 21//15 19//15
f 23//14 21//14 22//14
f 24//14 23//14 22//14
