# Blender v2.76 (sub 0) OBJ File: 'scene.blend'
# www.blender.org
mtllib scene1.mtl
o Cube_Cube.000
v -0.831522 0.339312 0.786209
v -0.831522 0.339312 0.260753
v -0.831522 0.012255 0.260753
v -0.831522 0.012255 0.786209
v -0.367169 0.339312 0.260753
v -0.367169 0.012255 0.260753
v -0.367169 0.339312 0.786209
v -0.367169 0.012255 0.786209
vn -1.000000 0.000000 0.000000
vn 0.000000 0.000000 -1.000000
vn 1.000000 0.000000 0.000000
vn 0.000000 -0.000000 1.000000
vn 0.000000 -1.000000 -0.000000
vn 0.000000 1.000000 0.000000
usemtl Material.002
s 1
f 1//1 2//1 3//1 4//1
f 2//2 5//2 6//2 3//2
f 5//3 7//3 8//3 6//3
f 7//4 1//4 4//4 8//4
f 4//5 3//5 6//5 8//5
f 7//6 5//6 2//6 1//6
o Cube_Cube.001
v -0.197278 1.436104 -0.089609
v -0.197278 1.436104 -0.278791
v -0.197278 0.012255 -0.278791
v -0.197278 0.012255 -0.089609
v 0.524747 1.436104 -0.278791
v 0.524747 0.012255 -0.278791
v 0.524747 1.436104 -0.089609
v 0.524747 0.012255 -0.089609
vn -1.000000 0.000000 0.000000
vn 0.000000 0.000000 -1.000000
vn 1.000000 0.000000 0.000000
vn 0.000000 -0.000000 1.000000
vn 0.000000 -1.000000 -0.000000
vn 0.000000 1.000000 0.000000
usemtl Material.005
s 1
f 9//7 10//7 11//7 12//7
f 10//8 13//8 14//8 11//8
f 13//9 15//9 16//9 14//9
f 15//10 9//10 12//10 16//10
f 12//11 11//11 14//11 16//11
f 15//12 13//12 10//12 9//12
o scene
v 0.958679 2.015564 0.990929
v 0.958679 2.015564 -1.009071
v -1.041321 2.015564 -1.009071
v -1.041321 2.015564 0.990929
v 0.958679 0.015564 -1.009071
v -1.041321 0.015564 -1.009071
v 0.958679 0.015564 0.990929
v -1.041321 0.015564 0.990929
vn 1.000000 -0.000000 0.000000
vn 0.000000 1.000000 0.000000
vn 0.000000 0.000000 -1.000000
usemtl Material.003
s 1
f 24//13 22//13 19//13
f 20//13 24//13 19//13
usemtl None
f 17//14 18//14 19//14
f 20//14 17//14 19//14
f 21//15 22//15 19//15
f 18//15 21//15 19//15
f 23//14 21//14 22//14
f 24//14 23//14 22//14
usemtl Material.001
f 23//13 21//13 18//13
f 17//13 23//13 18//13
